<svg width="512" height="512" viewBox="0 0 512 512" fill="none" xmlns="http://www.w3.org/2000/svg">
  <rect width="512" height="512" rx="112" fill="url(#bg)"/>
  <rect x="52" y="52" width="408" height="408" rx="92" fill="url(#panel)" fill-opacity="0.8"/>
  <path d="M256 104C281.667 143.333 294.5 176 294.5 202C294.5 233.333 281.5 258.333 255.5 277C273.5 263.667 282.5 245.333 282.5 222C282.5 200.667 273.667 178.667 256 156C240 177.333 232 197 232 215C232 244.333 247.5 267.333 278.5 284C232.833 277 200.833 248.5 182.5 198.5C170.833 166.5 168.333 135 175 104C197.667 128.667 214.667 147 226 159C236 135.667 246 117.333 256 104Z" fill="#34D399"/>
  <path d="M144 292C144 271.013 161.013 254 182 254H330C350.987 254 368 271.013 368 292V310C368 352.526 333.526 387 291 387H221C178.474 387 144 352.526 144 310V292Z" fill="#F8FAFC"/>
  <path d="M182 254H330C350.987 254 368 271.013 368 292V296H144V292C144 271.013 161.013 254 182 254Z" fill="#E2E8F0"/>
  <path d="M202 344C217.464 344 230 331.464 230 316C230 300.536 217.464 288 202 288C186.536 288 174 300.536 174 316C174 331.464 186.536 344 202 344Z" fill="#10B981" fill-opacity="0.16"/>
  <path d="M310 344C325.464 344 338 331.464 338 316C338 300.536 325.464 288 310 288C294.536 288 282 300.536 282 316C282 331.464 294.536 344 310 344Z" fill="#0EA5E9" fill-opacity="0.14"/>
  <defs>
    <linearGradient id="bg" x1="64" y1="32" x2="448" y2="480" gradientUnits="userSpaceOnUse">
      <stop stop-color="#0F172A"/>
      <stop offset="1" stop-color="#064E3B"/>
    </linearGradient>
    <linearGradient id="panel" x1="100" y1="84" x2="420" y2="430" gradientUnits="userSpaceOnUse">
      <stop stop-color="#111827"/>
      <stop offset="1" stop-color="#1E293B"/>
    </linearGradient>
  </defs>
</svg>
